<mxfile host="Electron" modified="2024-02-22T01:08:21.459Z" agent="Mozilla/5.0 (Windows NT 10.0; Win64; x64) AppleWebKit/537.36 (KHTML, like Gecko) draw.io/23.1.5 Chrome/120.0.6099.109 Electron/28.1.0 Safari/537.36" etag="uO8oZUCgGXC46zCosYiz" version="23.1.5" type="device">
  <diagram name="Page-1" id="l8lxAULatgNT0f36uCKn">
    <mxGraphModel dx="780" dy="496" grid="1" gridSize="10" guides="1" tooltips="1" connect="1" arrows="1" fold="1" page="1" pageScale="1" pageWidth="850" pageHeight="1100" math="0" shadow="0">
      <root>
        <mxCell id="0" />
        <mxCell id="1" parent="0" />
        <mxCell id="XV8XUU1FUnt4URAkmlwl-4" value="Local Network" style="swimlane;fillColor=#A680B8;" parent="1" vertex="1">
          <mxGeometry x="90" y="70" width="270" height="200" as="geometry" />
        </mxCell>
        <mxCell id="XV8XUU1FUnt4URAkmlwl-6" value="" style="fontColor=#0066CC;verticalAlign=top;verticalLabelPosition=bottom;labelPosition=center;align=center;html=1;outlineConnect=0;fillColor=#CCCCCC;strokeColor=#6881B3;gradientColor=none;gradientDirection=north;strokeWidth=2;shape=mxgraph.networks.printer;" parent="XV8XUU1FUnt4URAkmlwl-4" vertex="1">
          <mxGeometry x="20" y="50" width="60" height="70" as="geometry" />
        </mxCell>
        <mxCell id="XV8XUU1FUnt4URAkmlwl-9" value="" style="sketch=0;pointerEvents=1;shadow=0;dashed=0;html=1;strokeColor=none;fillColor=#505050;labelPosition=center;verticalLabelPosition=bottom;verticalAlign=top;outlineConnect=0;align=center;shape=mxgraph.office.servers.active_directory_federation_services_server;" parent="XV8XUU1FUnt4URAkmlwl-4" vertex="1">
          <mxGeometry x="160" y="50" width="45" height="56" as="geometry" />
        </mxCell>
        <mxCell id="XV8XUU1FUnt4URAkmlwl-24" style="edgeStyle=orthogonalEdgeStyle;rounded=0;orthogonalLoop=1;jettySize=auto;html=1;exitX=0.5;exitY=1;exitDx=0;exitDy=0;exitPerimeter=0;strokeColor=#66B2FF;" parent="XV8XUU1FUnt4URAkmlwl-4" source="XV8XUU1FUnt4URAkmlwl-6" edge="1">
          <mxGeometry relative="1" as="geometry">
            <mxPoint x="310" y="340" as="targetPoint" />
          </mxGeometry>
        </mxCell>
        <mxCell id="XV8XUU1FUnt4URAkmlwl-22" value="NETWORK PRINTER" style="whiteSpace=wrap;html=1;" parent="XV8XUU1FUnt4URAkmlwl-4" vertex="1">
          <mxGeometry x="20" y="140" width="80" height="30" as="geometry" />
        </mxCell>
        <mxCell id="XV8XUU1FUnt4URAkmlwl-23" value="ACTIVE DIRECTORY SERVER" style="whiteSpace=wrap;html=1;" parent="XV8XUU1FUnt4URAkmlwl-4" vertex="1">
          <mxGeometry x="122.5" y="140" width="120" height="30" as="geometry" />
        </mxCell>
        <mxCell id="XV8XUU1FUnt4URAkmlwl-5" value="External Network" style="swimlane;fillColor=#A680B8;" parent="1" vertex="1">
          <mxGeometry x="510" y="70" width="290" height="220" as="geometry" />
        </mxCell>
        <mxCell id="XV8XUU1FUnt4URAkmlwl-3" value="" style="sketch=0;pointerEvents=1;shadow=0;dashed=0;html=1;strokeColor=none;fillColor=#434445;aspect=fixed;labelPosition=center;verticalLabelPosition=bottom;verticalAlign=top;align=center;outlineConnect=0;shape=mxgraph.vvd.external_networks;" parent="XV8XUU1FUnt4URAkmlwl-5" vertex="1">
          <mxGeometry width="28.57" height="20" as="geometry" />
        </mxCell>
        <mxCell id="XV8XUU1FUnt4URAkmlwl-11" value="" style="verticalLabelPosition=bottom;sketch=0;html=1;fillColor=#A153A0;strokeColor=#ffffff;verticalAlign=top;align=center;points=[[0,0.5,0],[0.125,0.25,0],[0.25,0,0],[0.5,0,0],[0.75,0,0],[0.875,0.25,0],[1,0.5,0],[0.875,0.75,0],[0.75,1,0],[0.5,1,0],[0.125,0.75,0]];pointerEvents=1;shape=mxgraph.cisco_safe.compositeIcon;bgIcon=mxgraph.cisco_safe.design.blank_device;resIcon=mxgraph.cisco_safe.design.server_3;" parent="XV8XUU1FUnt4URAkmlwl-5" vertex="1">
          <mxGeometry x="60" y="85" width="50" height="45" as="geometry" />
        </mxCell>
        <mxCell id="XV8XUU1FUnt4URAkmlwl-12" value="" style="verticalLabelPosition=bottom;sketch=0;html=1;fillColor=#A153A0;strokeColor=#ffffff;verticalAlign=top;align=center;points=[[0,0.5,0],[0.125,0.25,0],[0.25,0,0],[0.5,0,0],[0.75,0,0],[0.875,0.25,0],[1,0.5,0],[0.875,0.75,0],[0.75,1,0],[0.5,1,0],[0.125,0.75,0]];pointerEvents=1;shape=mxgraph.cisco_safe.compositeIcon;bgIcon=mxgraph.cisco_safe.design.blank_device;resIcon=mxgraph.cisco_safe.design.server_2;" parent="XV8XUU1FUnt4URAkmlwl-5" vertex="1">
          <mxGeometry x="160" y="85" width="50" height="45" as="geometry" />
        </mxCell>
        <mxCell id="XV8XUU1FUnt4URAkmlwl-20" value="DICOM MWI SERVER" style="whiteSpace=wrap;html=1;" parent="XV8XUU1FUnt4URAkmlwl-5" vertex="1">
          <mxGeometry x="40" y="140" width="90" height="30" as="geometry" />
        </mxCell>
        <mxCell id="XV8XUU1FUnt4URAkmlwl-21" value="DICOM PACS SERVER" style="whiteSpace=wrap;html=1;" parent="XV8XUU1FUnt4URAkmlwl-5" vertex="1">
          <mxGeometry x="160" y="140" width="90" height="30" as="geometry" />
        </mxCell>
        <mxCell id="XV8XUU1FUnt4URAkmlwl-10" value="" style="outlineConnect=0;dashed=0;verticalLabelPosition=bottom;verticalAlign=top;align=center;html=1;shape=mxgraph.aws3.customer_gateway;fillColor=#F58536;gradientColor=none;" parent="1" vertex="1">
          <mxGeometry x="400" y="370" width="69" height="90" as="geometry" />
        </mxCell>
        <mxCell id="XV8XUU1FUnt4URAkmlwl-13" style="edgeStyle=orthogonalEdgeStyle;rounded=0;orthogonalLoop=1;jettySize=auto;html=1;entryX=0.5;entryY=0;entryDx=0;entryDy=0;entryPerimeter=0;strokeColor=#66B2FF;" parent="1" source="XV8XUU1FUnt4URAkmlwl-11" target="XV8XUU1FUnt4URAkmlwl-10" edge="1">
          <mxGeometry relative="1" as="geometry" />
        </mxCell>
        <mxCell id="XV8XUU1FUnt4URAkmlwl-14" style="edgeStyle=orthogonalEdgeStyle;rounded=0;orthogonalLoop=1;jettySize=auto;html=1;exitX=0.5;exitY=1;exitDx=0;exitDy=0;exitPerimeter=0;entryX=1;entryY=0.5;entryDx=0;entryDy=0;entryPerimeter=0;strokeColor=#66B2FF;" parent="1" source="XV8XUU1FUnt4URAkmlwl-12" target="XV8XUU1FUnt4URAkmlwl-10" edge="1">
          <mxGeometry relative="1" as="geometry" />
        </mxCell>
        <mxCell id="XV8XUU1FUnt4URAkmlwl-16" style="edgeStyle=orthogonalEdgeStyle;rounded=0;orthogonalLoop=1;jettySize=auto;html=1;entryX=0;entryY=0.5;entryDx=0;entryDy=0;entryPerimeter=0;strokeColor=#66B2FF;" parent="1" source="XV8XUU1FUnt4URAkmlwl-9" target="XV8XUU1FUnt4URAkmlwl-10" edge="1">
          <mxGeometry relative="1" as="geometry" />
        </mxCell>
        <mxCell id="XV8XUU1FUnt4URAkmlwl-45" style="edgeStyle=orthogonalEdgeStyle;rounded=0;orthogonalLoop=1;jettySize=auto;html=1;strokeColor=#66B2FF;" parent="1" source="XV8XUU1FUnt4URAkmlwl-25" edge="1">
          <mxGeometry relative="1" as="geometry">
            <mxPoint x="170" y="580" as="targetPoint" />
          </mxGeometry>
        </mxCell>
        <mxCell id="XV8XUU1FUnt4URAkmlwl-25" value="CUSTOMER NETWORK" style="whiteSpace=wrap;html=1;" parent="1" vertex="1">
          <mxGeometry x="374.5" y="450" width="120" height="30" as="geometry" />
        </mxCell>
        <mxCell id="XV8XUU1FUnt4URAkmlwl-26" style="edgeStyle=orthogonalEdgeStyle;rounded=0;orthogonalLoop=1;jettySize=auto;html=1;exitX=0.5;exitY=1;exitDx=0;exitDy=0;" parent="1" source="XV8XUU1FUnt4URAkmlwl-25" target="XV8XUU1FUnt4URAkmlwl-25" edge="1">
          <mxGeometry relative="1" as="geometry" />
        </mxCell>
        <mxCell id="XV8XUU1FUnt4URAkmlwl-90" style="edgeStyle=orthogonalEdgeStyle;rounded=0;orthogonalLoop=1;jettySize=auto;html=1;strokeColor=#66B2FF;" parent="1" source="XV8XUU1FUnt4URAkmlwl-27" target="XV8XUU1FUnt4URAkmlwl-35" edge="1">
          <mxGeometry relative="1" as="geometry" />
        </mxCell>
        <mxCell id="XV8XUU1FUnt4URAkmlwl-27" value="" style="image;html=1;image=img/lib/clip_art/computers/Monitor_128x128.png" parent="1" vertex="1">
          <mxGeometry x="360" y="610.0000000000001" width="80" height="80" as="geometry" />
        </mxCell>
        <mxCell id="XV8XUU1FUnt4URAkmlwl-28" value="" style="pointerEvents=1;verticalLabelPosition=bottom;shadow=0;dashed=0;align=center;html=1;verticalAlign=top;shape=mxgraph.electrical.electro-mechanical.isolatorSwitch2;elSwitchState=off;" parent="1" vertex="1">
          <mxGeometry x="132.5" y="590" width="75" height="20" as="geometry" />
        </mxCell>
        <mxCell id="XV8XUU1FUnt4URAkmlwl-30" value="" style="image;points=[];aspect=fixed;html=1;align=center;shadow=0;dashed=0;image=img/lib/allied_telesis/computer_and_terminals/Personal_Computer.svg;" parent="1" vertex="1">
          <mxGeometry x="760" y="430" width="80" height="108.42" as="geometry" />
        </mxCell>
        <mxCell id="XV8XUU1FUnt4URAkmlwl-74" style="edgeStyle=orthogonalEdgeStyle;rounded=0;orthogonalLoop=1;jettySize=auto;html=1;strokeColor=#66B2FF;" parent="1" source="XV8XUU1FUnt4URAkmlwl-31" target="XV8XUU1FUnt4URAkmlwl-34" edge="1">
          <mxGeometry relative="1" as="geometry" />
        </mxCell>
        <mxCell id="XV8XUU1FUnt4URAkmlwl-31" value="" style="shape=image;html=1;verticalAlign=top;verticalLabelPosition=bottom;labelBackgroundColor=#ffffff;imageAspect=0;aspect=fixed;image=https://cdn0.iconfinder.com/data/icons/phosphor-light-vol-1/256/bounding-box-light-128.png" parent="1" vertex="1">
          <mxGeometry x="356" y="770" width="60" height="60" as="geometry" />
        </mxCell>
        <mxCell id="XV8XUU1FUnt4URAkmlwl-73" style="edgeStyle=orthogonalEdgeStyle;rounded=0;orthogonalLoop=1;jettySize=auto;html=1;entryX=0;entryY=0.5;entryDx=0;entryDy=0;strokeColor=#66B2FF;" parent="1" source="XV8XUU1FUnt4URAkmlwl-32" target="XV8XUU1FUnt4URAkmlwl-31" edge="1">
          <mxGeometry relative="1" as="geometry" />
        </mxCell>
        <mxCell id="XV8XUU1FUnt4URAkmlwl-32" value="CAMERA" style="sketch=0;outlineConnect=0;fontColor=#232F3E;gradientColor=none;strokeColor=#232F3E;fillColor=#ffffff;dashed=0;verticalLabelPosition=bottom;verticalAlign=top;align=center;html=1;fontSize=12;fontStyle=0;aspect=fixed;shape=mxgraph.aws4.resourceIcon;resIcon=mxgraph.aws4.camera;" parent="1" vertex="1">
          <mxGeometry x="207.5" y="740" width="60" height="60" as="geometry" />
        </mxCell>
        <mxCell id="XV8XUU1FUnt4URAkmlwl-33" value="" style="shape=image;html=1;verticalAlign=top;verticalLabelPosition=bottom;labelBackgroundColor=#ffffff;imageAspect=0;aspect=fixed;image=https://cdn0.iconfinder.com/data/icons/just-drivers/128/1403708877_External_Drive-Black.png" parent="1" vertex="1">
          <mxGeometry x="780" y="875" width="40" height="40" as="geometry" />
        </mxCell>
        <mxCell id="XV8XUU1FUnt4URAkmlwl-34" value="&lt;table cellpadding=&quot;4&quot; cellspacing=&quot;0&quot; border=&quot;0&quot; style=&quot;font-size:1em;width:100%;height:100%;&quot;&gt;&lt;tr&gt;&lt;td&gt;TI&lt;/td&gt;&lt;/tr&gt;&lt;tr&gt;&lt;td&gt;##&lt;/td&gt;&lt;/table&gt; " style="html=1;outlineConnect=0;align=center;dashed=0;aspect=fixed;shape=mxgraph.pid2inst.discInst;mounting=room" parent="1" vertex="1">
          <mxGeometry x="670" y="780" width="50" height="50" as="geometry" />
        </mxCell>
        <mxCell id="XV8XUU1FUnt4URAkmlwl-57" style="edgeStyle=orthogonalEdgeStyle;rounded=0;orthogonalLoop=1;jettySize=auto;html=1;entryX=0.5;entryY=1;entryDx=0;entryDy=0;strokeColor=#66B2FF;" parent="1" source="XV8XUU1FUnt4URAkmlwl-39" target="XV8XUU1FUnt4URAkmlwl-34" edge="1">
          <mxGeometry relative="1" as="geometry">
            <mxPoint x="680" y="740" as="targetPoint" />
          </mxGeometry>
        </mxCell>
        <mxCell id="XV8XUU1FUnt4URAkmlwl-39" value="" style="pointerEvents=1;verticalLabelPosition=bottom;shadow=0;dashed=0;align=center;html=1;verticalAlign=top;shape=mxgraph.electrical.miscellaneous.batteryStack;" parent="1" vertex="1">
          <mxGeometry x="360" y="880" width="60" height="30" as="geometry" />
        </mxCell>
        <mxCell id="XV8XUU1FUnt4URAkmlwl-43" style="edgeStyle=orthogonalEdgeStyle;rounded=0;orthogonalLoop=1;jettySize=auto;html=1;" parent="1" source="XV8XUU1FUnt4URAkmlwl-33" target="XV8XUU1FUnt4URAkmlwl-33" edge="1">
          <mxGeometry relative="1" as="geometry" />
        </mxCell>
        <mxCell id="XV8XUU1FUnt4URAkmlwl-105" style="edgeStyle=orthogonalEdgeStyle;rounded=0;orthogonalLoop=1;jettySize=auto;html=1;strokeColor=#66B2FF;" parent="1" source="XV8XUU1FUnt4URAkmlwl-35" edge="1">
          <mxGeometry relative="1" as="geometry">
            <mxPoint x="850" y="600" as="targetPoint" />
          </mxGeometry>
        </mxCell>
        <mxCell id="XV8XUU1FUnt4URAkmlwl-35" value="" style="pointerEvents=1;shadow=0;dashed=0;html=1;strokeColor=none;fillColor=#4495D1;labelPosition=center;verticalLabelPosition=bottom;verticalAlign=top;align=center;outlineConnect=0;shape=mxgraph.veeam.usb;" parent="1" vertex="1">
          <mxGeometry x="510.00000000000006" y="681.5999999999999" width="52.8" height="18.4" as="geometry" />
        </mxCell>
        <mxCell id="XV8XUU1FUnt4URAkmlwl-87" style="edgeStyle=orthogonalEdgeStyle;rounded=0;orthogonalLoop=1;jettySize=auto;html=1;strokeColor=#66B2FF;" parent="1" target="XV8XUU1FUnt4URAkmlwl-78" edge="1">
          <mxGeometry relative="1" as="geometry">
            <mxPoint x="170" y="580" as="sourcePoint" />
            <mxPoint x="250" y="520" as="targetPoint" />
            <Array as="points">
              <mxPoint x="170" y="581" />
              <mxPoint x="260" y="581" />
            </Array>
          </mxGeometry>
        </mxCell>
        <mxCell id="XV8XUU1FUnt4URAkmlwl-52" value="ISOLATOR" style="rounded=1;whiteSpace=wrap;html=1;" parent="1" vertex="1">
          <mxGeometry x="110" y="640" width="120" height="20" as="geometry" />
        </mxCell>
        <mxCell id="XV8XUU1FUnt4URAkmlwl-53" value="TOUCHSCREEN MONITOR" style="whiteSpace=wrap;html=1;" parent="1" vertex="1">
          <mxGeometry x="320" y="705" width="120" height="30" as="geometry" />
        </mxCell>
        <mxCell id="XV8XUU1FUnt4URAkmlwl-54" value="USB" style="whiteSpace=wrap;html=1;" parent="1" vertex="1">
          <mxGeometry x="480" y="710" width="120" height="20" as="geometry" />
        </mxCell>
        <mxCell id="XV8XUU1FUnt4URAkmlwl-55" value="Text" style="text;html=1;align=center;verticalAlign=middle;resizable=0;points=[];autosize=1;strokeColor=none;fillColor=none;" parent="1" vertex="1">
          <mxGeometry x="825" y="88" width="50" height="30" as="geometry" />
        </mxCell>
        <mxCell id="XV8XUU1FUnt4URAkmlwl-64" value="LIGHT BOX" style="whiteSpace=wrap;html=1;" parent="1" vertex="1">
          <mxGeometry x="356" y="840" width="80" height="20" as="geometry" />
        </mxCell>
        <mxCell id="XV8XUU1FUnt4URAkmlwl-70" style="edgeStyle=orthogonalEdgeStyle;rounded=0;orthogonalLoop=1;jettySize=auto;html=1;exitX=0;exitY=0.5;exitDx=0;exitDy=0;entryX=0.145;entryY=0.855;entryDx=0;entryDy=0;entryPerimeter=0;" parent="1" source="XV8XUU1FUnt4URAkmlwl-34" target="XV8XUU1FUnt4URAkmlwl-34" edge="1">
          <mxGeometry relative="1" as="geometry" />
        </mxCell>
        <mxCell id="XV8XUU1FUnt4URAkmlwl-76" value="" style="edgeStyle=orthogonalEdgeStyle;rounded=0;orthogonalLoop=1;jettySize=auto;html=1;strokeColor=#66B2FF;" parent="1" source="XV8XUU1FUnt4URAkmlwl-34" edge="1">
          <mxGeometry relative="1" as="geometry">
            <mxPoint x="846" y="750" as="targetPoint" />
            <mxPoint x="720" y="805" as="sourcePoint" />
          </mxGeometry>
        </mxCell>
        <mxCell id="XV8XUU1FUnt4URAkmlwl-106" style="edgeStyle=orthogonalEdgeStyle;rounded=0;orthogonalLoop=1;jettySize=auto;html=1;strokeColor=#66B2FF;" parent="1" source="XV8XUU1FUnt4URAkmlwl-75" edge="1">
          <mxGeometry relative="1" as="geometry">
            <mxPoint x="850" y="600" as="targetPoint" />
          </mxGeometry>
        </mxCell>
        <mxCell id="XV8XUU1FUnt4URAkmlwl-75" value="" style="pointerEvents=1;shadow=0;dashed=0;html=1;strokeColor=none;fillColor=#4495D1;labelPosition=center;verticalLabelPosition=bottom;verticalAlign=top;align=center;outlineConnect=0;shape=mxgraph.veeam.usb;" parent="1" vertex="1">
          <mxGeometry x="820" y="721.6" width="52.8" height="18.4" as="geometry" />
        </mxCell>
        <mxCell id="XV8XUU1FUnt4URAkmlwl-78" value="" style="html=1;verticalLabelPosition=bottom;verticalAlign=top;outlineConnect=0;shadow=0;dashed=0;shape=mxgraph.rack.hpe_aruba.switches.rj45_sfp;" parent="1" vertex="1">
          <mxGeometry x="290" y="520" width="30" height="30" as="geometry" />
        </mxCell>
        <mxCell id="XV8XUU1FUnt4URAkmlwl-82" value="" style="edgeStyle=orthogonalEdgeStyle;rounded=0;orthogonalLoop=1;jettySize=auto;html=1;strokeColor=#66B2FF;exitX=1;exitY=0.5;exitDx=0;exitDy=0;" parent="1" source="XV8XUU1FUnt4URAkmlwl-27" target="XV8XUU1FUnt4URAkmlwl-38" edge="1">
          <mxGeometry relative="1" as="geometry">
            <mxPoint x="440" y="600" as="sourcePoint" />
            <mxPoint x="607" y="601" as="targetPoint" />
          </mxGeometry>
        </mxCell>
        <mxCell id="XV8XUU1FUnt4URAkmlwl-38" value="" style="html=1;shape=mxgraph.sysml.port;sysMLPortType=doubleH;" parent="1" vertex="1">
          <mxGeometry x="510" y="590" width="40" height="50" as="geometry" />
        </mxCell>
        <mxCell id="XV8XUU1FUnt4URAkmlwl-88" style="edgeStyle=orthogonalEdgeStyle;rounded=0;orthogonalLoop=1;jettySize=auto;html=1;strokeColor=#66B2FF;entryX=-0.007;entryY=0.469;entryDx=0;entryDy=0;entryPerimeter=0;" parent="1" source="XV8XUU1FUnt4URAkmlwl-78" target="XV8XUU1FUnt4URAkmlwl-99" edge="1">
          <mxGeometry relative="1" as="geometry">
            <mxPoint x="790" y="540" as="targetPoint" />
          </mxGeometry>
        </mxCell>
        <mxCell id="XV8XUU1FUnt4URAkmlwl-85" value="RJ45" style="whiteSpace=wrap;html=1;verticalAlign=top;shadow=0;dashed=0;" parent="1" vertex="1">
          <mxGeometry x="280" y="560" width="60" height="20" as="geometry" />
        </mxCell>
        <mxCell id="XV8XUU1FUnt4URAkmlwl-92" value="DISPLAY PORT" style="whiteSpace=wrap;html=1;" parent="1" vertex="1">
          <mxGeometry x="480" y="650" width="100" height="20" as="geometry" />
        </mxCell>
        <mxCell id="XV8XUU1FUnt4URAkmlwl-93" value="EXTERNAL DRIVE" style="whiteSpace=wrap;html=1;" parent="1" vertex="1">
          <mxGeometry x="750" y="920" width="120" height="20" as="geometry" />
        </mxCell>
        <mxCell id="XV8XUU1FUnt4URAkmlwl-94" value="POWER SUPPY AND BATERRIES" style="whiteSpace=wrap;html=1;" parent="1" vertex="1">
          <mxGeometry x="320" y="920" width="120" height="30" as="geometry" />
        </mxCell>
        <mxCell id="XV8XUU1FUnt4URAkmlwl-95" value="INSTRUMENT CONTROLLER" style="whiteSpace=wrap;html=1;" parent="1" vertex="1">
          <mxGeometry x="710" y="830" width="80" height="30" as="geometry" />
        </mxCell>
        <mxCell id="XV8XUU1FUnt4URAkmlwl-97" value="" style="outlineConnect=0;dashed=0;verticalLabelPosition=bottom;verticalAlign=top;align=center;html=1;shape=mxgraph.aws3.medical_emergency;fillColor=#5294CF;gradientColor=none;" parent="1" vertex="1">
          <mxGeometry x="850" y="440.5" width="79.5" height="79.5" as="geometry" />
        </mxCell>
        <mxCell id="XV8XUU1FUnt4URAkmlwl-99" value="" style="swimlane;startSize=0;fillColor=#A680B8;strokeColor=#FFB570;" parent="1" vertex="1">
          <mxGeometry x="750" y="384" width="200" height="206" as="geometry" />
        </mxCell>
        <mxCell id="XV8XUU1FUnt4URAkmlwl-100" value="EMS" style="whiteSpace=wrap;html=1;" parent="1" vertex="1">
          <mxGeometry x="860" y="540" width="80" height="30" as="geometry" />
        </mxCell>
        <mxCell id="XV8XUU1FUnt4URAkmlwl-103" style="edgeStyle=orthogonalEdgeStyle;rounded=0;orthogonalLoop=1;jettySize=auto;html=1;entryX=0.5;entryY=1;entryDx=0;entryDy=0;strokeColor=#66B2FF;" parent="1" source="XV8XUU1FUnt4URAkmlwl-38" target="XV8XUU1FUnt4URAkmlwl-99" edge="1">
          <mxGeometry relative="1" as="geometry">
            <Array as="points">
              <mxPoint x="850" y="615" />
            </Array>
          </mxGeometry>
        </mxCell>
        <mxCell id="XV8XUU1FUnt4URAkmlwl-107" value="USB" style="whiteSpace=wrap;html=1;" parent="1" vertex="1">
          <mxGeometry x="860" y="750" width="40" height="20" as="geometry" />
        </mxCell>
        <mxCell id="XV8XUU1FUnt4URAkmlwl-108" value="SBC" style="whiteSpace=wrap;html=1;" parent="1" vertex="1">
          <mxGeometry x="770" y="540" width="60" height="30" as="geometry" />
        </mxCell>
      </root>
    </mxGraphModel>
  </diagram>
</mxfile>
